<?xml version="1.0" encoding="UTF-8"?>
<svg width="24px" height="24px" viewBox="0 0 24 24" version="1.1" xmlns="http://www.w3.org/2000/svg" xmlns:xlink="http://www.w3.org/1999/xlink">
    <title>Hurricane Symbol</title>
    <g id="Hurricane-Symbol" stroke="none" fill="none" fill-rule="nonzero">
        <rect id="Rectangle" x="0" y="0" width="24" height="24"></rect>
        <path d="M18.0818414,2.05733128 C15.0627142,2.24259334 12.3731846,2.8298551 10.1371082,3.82503525 C8.57078002,4.52213964 7.28681886,5.39941692 6.28646794,6.45596666 L5.92941378,6.83307983 L5.81852262,6.96868487 C3.32129547,10.1077347 3.52023023,14.5685185 6.24303441,17.4328967 L6.35289606,17.5446995 L7.62924586,18.8436019 L6.45531836,20.2357622 L4.98332374,21.9814002 C6.21471776,21.9479521 7.44340809,21.8365361 8.6416712,21.6484457 C12.6657018,21.016797 15.7218434,19.6440002 17.7102706,17.5438649 L18.0672226,17.1668596 L18.1780191,17.0313293 C20.6756412,13.8908619 20.4761462,9.42889146 17.7522661,6.56518359 L17.6369198,6.44652636 L16.3744251,5.14779303 L17.5420552,3.76314831 L19.0157173,2.01559286 C18.7095787,2.02360016 18.39738,2.03796895 18.0818414,2.05733128 Z" id="Fill" fill="currentColor"></path>
        <path d="M20.4747469,0.00524010642 L20.8573985,0.0153165391 L21.3590669,0.0385812592 L23.1805548,0.179108653 L19.0709994,5.05246194 L19.1997939,5.1849533 C22.5906958,8.74829232 22.8835103,14.3306979 19.741206,18.2791235 L19.5695802,18.4890624 L19.1625814,18.9189261 C16.7378127,21.4799161 13.1758258,22.9612126 8.95181198,23.6242526 C7.46869443,23.8570563 5.99799356,23.9715623 4.59622748,23.9952552 L4.08814612,24 L3.62718201,23.9971405 L3.21598623,23.9879484 L2.85720981,23.9736954 L2.55350383,23.9556532 L0.81,23.8280557 L4.92635233,18.9464745 L4.79683886,18.8146725 C1.4057331,15.2506559 1.1129316,9.66826679 4.25551715,5.72066323 L4.42715827,5.51076916 L4.83415708,5.08090552 C6.04456247,3.80250063 7.55844223,2.78355462 9.32389759,1.99782739 C11.9085294,0.847520415 14.8789475,0.250107922 17.9593463,0.0610860677 C18.8623904,0.00567276138 19.7084537,-0.00934982293 20.4747469,0.00524010642 Z M18.0818414,2.05733128 C15.0627142,2.24259334 12.3731846,2.8298551 10.1371082,3.82503525 C8.57078002,4.52213964 7.28681886,5.39941692 6.28646794,6.45596666 L5.92941378,6.83307983 L5.81852262,6.96868487 C3.32129547,10.1077347 3.52023023,14.5685185 6.24303441,17.4328967 L6.35289606,17.5446995 L7.62924586,18.8436019 L6.45531836,20.2357622 L4.98332374,21.9814002 C6.21471776,21.9479521 7.44340809,21.8365361 8.6416712,21.6484457 C12.6657018,21.016797 15.7218434,19.6440002 17.7102706,17.5438649 L18.0672226,17.1668596 L18.1780191,17.0313293 C20.6756412,13.8908619 20.4761462,9.42889146 17.7522661,6.56518359 L17.6369198,6.44652636 L16.3744251,5.14779303 L17.5420552,3.76314831 L19.0157173,2.01559286 C18.7095787,2.02360016 18.39738,2.03796895 18.0818414,2.05733128 Z" id="Shape" fill="#797979"></path>
    </g>
</svg>