<?xml version="1.0" encoding="UTF-8"?>
<svg width="21px" height="16px" viewBox="0 0 21 16" version="1.1" xmlns="http://www.w3.org/2000/svg" xmlns:xlink="http://www.w3.org/1999/xlink">
    <title>2</title>
    <g id="Page-1" stroke="none" stroke-width="1" fill="none" fill-rule="evenodd">
        <g id="Icons-and-Artwork-v2" transform="translate(-218.000000, -492.000000)">
            <g id="2" transform="translate(218.000000, 492.000000)">
                <rect id="Rectangle" x="0" y="0" width="21" height="16"></rect>
                <path d="M10.4427059,0.23 C9.41985032,0.23 8.46557786,0.48796816 7.6214324,1.00453478 C6.77411413,1.52304298 6.11202787,2.2551576 5.65775776,3.16369781 C5.28008303,3.91904728 5.06851763,4.73947206 5.02258664,5.60760909 L4.96,7.9721875 L7.98020589,7.97125 L5.20051839,11.5065305 L5.20051839,15.76125 L15.9036434,15.76125 L15.9036434,9.9253125 L13.9732059,9.92525 L14.1123255,9.73259797 C14.4821325,9.20621255 14.7746751,8.71649479 14.9907866,8.25703081 C15.4220716,7.34009725 15.6458309,6.40181242 15.6458309,5.4565625 C15.6458309,3.92807304 15.1860715,2.62150097 14.2202007,1.65563019 C13.2562511,0.691680616 11.9571034,0.23 10.4427059,0.23 Z" fill="#FFFFFF" fill-rule="nonzero"></path>
                <path d="M10.4427059,2.23 C11.4583309,2.23 12.2460913,2.50994792 12.8059871,3.06984375 C13.365883,3.62973958 13.6458309,4.4253125 13.6458309,5.4565625 C13.6458309,6.0971875 13.490883,6.74692708 13.1809871,7.40578125 C12.8992637,8.00473958 12.4098525,8.72960184 11.7127537,9.58036803 L11.4973934,9.839375 L10.0364559,11.9253125 L13.9036434,11.9253125 L13.9036434,13.76125 L7.20051839,13.76125 L7.20051839,12.19875 L10.2786434,8.2846875 L10.4397563,8.05661033 C10.7493864,7.60858737 10.9834425,7.20935268 11.1419246,6.85890625 C11.3268205,6.45005208 11.4192684,6.058125 11.4192684,5.683125 C11.4192684,5.17791667 11.3320288,4.78208333 11.1575496,4.495625 C10.9830705,4.20916667 10.7317684,4.0659375 10.4036434,4.0659375 C10.0442684,4.0659375 9.75911214,4.23260417 9.54817464,4.5659375 C9.36360433,4.85760417 9.25978353,5.25294922 9.23671224,5.75197266 L9.23176839,5.9721875 L7.01301839,5.9721875 L7.0197933,5.71327637 C7.05140951,5.1157015 7.19368246,4.56398438 7.44661214,4.058125 C7.73567464,3.48 8.14192464,3.03078125 8.66536214,2.71046875 C9.18879964,2.39015625 9.78124756,2.23 10.4427059,2.23 Z" id="Path" fill="#434343" fill-rule="nonzero"></path>
            </g>
        </g>
    </g>
</svg>