<?xml version="1.0" encoding="UTF-8"?>
<svg width="21px" height="16px" viewBox="0 0 21 16" version="1.1" xmlns="http://www.w3.org/2000/svg" xmlns:xlink="http://www.w3.org/1999/xlink">
    <title>3</title>
    <g id="Page-1" stroke="none" stroke-width="1" fill="none" fill-rule="evenodd">
        <g id="Icons-and-Artwork-v2" transform="translate(-244.000000, -492.000000)">
            <g id="3" transform="translate(244.000000, 492.000000)">
                <rect id="Rectangle" x="0" y="0" width="21" height="16"></rect>
                <path d="M10.296875,0.15 C9.37203321,0.15 8.49971674,0.36235389 7.71029105,0.788393155 C6.89544232,1.22815279 6.24170934,1.85742637 5.78173934,2.65032703 C5.39108876,3.32373422 5.16842968,4.07017229 5.11451216,4.86558409 L5.03367551,7.2515625 L7.1874375,7.25125 L7.1874375,8.56325 L5,8.5640625 L5,10.5640625 C5,12.0577358 5.50104804,13.3630412 6.50205152,14.3554524 C7.49797406,15.3428262 8.79783114,15.8375 10.28125,15.8375 C11.8182894,15.8375 13.1586166,15.3542387 14.1918955,14.3753429 C15.2495339,13.3733697 15.78125,12.0343923 15.78125,10.49375 L15.7732752,10.1764982 C15.7306856,9.33822517 15.517051,8.56277114 15.1213825,7.87328953 L15.0324375,7.72825 L14.9539052,7.86663673 C15.4132552,7.11294588 15.6484375,6.27496631 15.6484375,5.3921875 C15.6484375,3.87345884 15.1563033,2.56110109 14.1530459,1.58424512 C13.1590225,0.616380316 11.8355108,0.15 10.296875,0.15 Z" fill="#FFFFFF" fill-rule="nonzero"></path>
                <path d="M10.296875,2.15 C11.34375,2.15 12.1640625,2.4390625 12.7578125,3.0171875 C13.3515625,3.5953125 13.6484375,4.38697917 13.6484375,5.3921875 C13.6484375,5.9078125 13.5143229,6.38567708 13.2460938,6.82578125 C12.9778646,7.26588542 12.625,7.603125 12.1875,7.8375 C12.7239583,8.06666667 13.1236979,8.41041667 13.3867188,8.86875 C13.6497396,9.32708333 13.78125,9.86875 13.78125,10.49375 C13.78125,11.5041667 13.4596354,12.3140625 12.8164062,12.9234375 C12.1731771,13.5328125 11.328125,13.8375 10.28125,13.8375 C9.30729167,13.8375 8.51692708,13.5367187 7.91015625,12.9351562 C7.35394965,12.383724 7.05267108,11.6736455 7.00632053,10.8049208 L7,10.5640625 L9.2109375,10.5640625 L9.21747449,10.7341837 C9.24362245,11.0664541 9.34821429,11.3508929 9.53125,11.5875 C9.74479167,11.8635417 10.015625,12.0015625 10.34375,12.0015625 C10.7239583,12.0015625 11.0247396,11.8609375 11.2460938,11.5796875 C11.4674479,11.2984375 11.578125,10.9234375 11.578125,10.4546875 C11.578125,9.40076593 11.1928886,8.84050065 10.4224157,8.77389165 L10.2734375,8.7671875 L9.1875,8.7671875 L9.1875,6.9859375 L10.2578125,6.9859375 L10.4050903,6.97928467 C10.7369181,6.94823812 10.9860026,6.80852865 11.1523438,6.56015625 C11.3424479,6.27630208 11.4375,5.89739583 11.4375,5.4234375 C11.4375,4.9703125 11.3398438,4.61744792 11.1445312,4.36484375 C10.9492188,4.11223958 10.6875,3.9859375 10.359375,3.9859375 C10.0520833,3.9859375 9.80078125,4.10572917 9.60546875,4.3453125 C9.43805804,4.55066964 9.34239477,4.80194515 9.31847895,5.09913903 L9.3125,5.2515625 L7.1015625,5.2515625 L7.10993304,5.00084503 C7.14341518,4.5069037 7.27734375,4.05792411 7.51171875,3.65390625 C7.78515625,3.18255208 8.16796875,2.8140625 8.66015625,2.5484375 C9.15234375,2.2828125 9.69791667,2.15 10.296875,2.15 Z" id="Path" fill="#434343" fill-rule="nonzero"></path>
            </g>
        </g>
    </g>
</svg>