<?xml version="1.0" encoding="UTF-8"?>
<svg width="21px" height="16px" viewBox="0 0 21 16" version="1.1" xmlns="http://www.w3.org/2000/svg" xmlns:xlink="http://www.w3.org/1999/xlink">
    <title>5</title>
    <g id="Page-1" stroke="none" stroke-width="1" fill="none" fill-rule="evenodd">
        <g id="Icons-and-Artwork-v2" transform="translate(-296.000000, -492.000000)">
            <g id="5" transform="translate(296.000000, 492.000000)">
                <rect id="Rectangle" x="0" y="0" width="21" height="16"></rect>
                <path d="M15.4932013,0.23 L6.17053889,0.23 L5.37201376,8.433 L5.18,8.433125 L5.19639235,10.4493846 C5.2043664,11.4301925 5.44343981,12.3449082 5.91734137,13.1585091 C6.3924397,13.9741646 7.05595463,14.6247958 7.88053331,15.0833625 C8.69024355,15.5336605 9.57972168,15.76125 10.5166388,15.76125 C12.0931419,15.76125 13.4562898,15.1720183 14.4506363,14.0233766 C15.3894846,12.938845 15.8447638,11.5533834 15.8447638,9.9565625 L15.8398518,9.63551538 C15.8004731,8.36533917 15.523324,7.26396415 14.9724594,6.35492245 L14.8210138,6.12 L15.4932013,6.120625 L15.4932013,0.23 Z" fill="#FFFFFF" fill-rule="nonzero"></path>
                <path d="M13.4932013,2.23 L13.4932013,4.120625 L9.79788876,4.120625 L9.59476376,6.558125 L9.77859667,6.44412628 C10.1478569,6.23366709 10.5266834,6.1284375 10.9150763,6.1284375 C11.8525763,6.1284375 12.5752325,6.46177083 13.083045,7.1284375 C13.5908575,7.79510417 13.8447638,8.7378125 13.8447638,9.9565625 C13.8447638,11.0971875 13.5426804,12.0164583 12.9385138,12.714375 C12.3343471,13.4122917 11.5270554,13.76125 10.5166388,13.76125 C9.91768043,13.76125 9.36299293,13.6193229 8.85257626,13.3354688 C8.34215959,13.0516146 7.93981584,12.6570833 7.64554501,12.151875 C7.38805803,11.7098177 7.24122779,11.2159212 7.20505429,10.6701855 L7.19632626,10.433125 L9.38382626,10.433125 L9.40439386,10.629713 C9.45541427,11.0098151 9.5657459,11.3114732 9.73538876,11.5346875 C9.93330543,11.7951042 10.1885138,11.9253125 10.5010138,11.9253125 C10.8655971,11.9253125 11.1468471,11.7495313 11.3447638,11.3979688 C11.5426804,11.0464063 11.6416388,10.5216667 11.6416388,9.82375 C11.6416388,9.1675 11.5231492,8.67270833 11.28617,8.339375 C11.0491908,8.00604167 10.7171596,7.839375 10.2900763,7.839375 C9.92549293,7.839375 9.63268694,7.94903483 9.41165829,8.16835449 L9.32132626,8.2690625 L9.18070126,8.464375 L7.42288876,8.01125 L7.98538876,2.23 L13.4932013,2.23 Z" id="Path" fill="#434343" fill-rule="nonzero"></path>
            </g>
        </g>
    </g>
</svg>