<?xml version="1.0" encoding="utf-8"?>
<!-- Generator: Adobe Illustrator 23.0.2, SVG Export Plug-In . SVG Version: 6.00 Build 0)  -->
<svg version="1.1" id="CC_Logo" xmlns="http://www.w3.org/2000/svg" xmlns:xlink="http://www.w3.org/1999/xlink" x="0px" y="0px"
	 viewBox="0 0 71 81" style="enable-background:new 0 0 71 81;" xml:space="preserve">
<style type="text/css">
	.st0{fill:#E75300;}
	.st1{fill:#AD441D;}
	.st2{fill:#FFD26C;}
	.st3{fill:#FFFFFF;}
	.st4{fill:#FFC656;}
	.st5{fill:#00758D;}
</style>
<g id="CC_Icon">
	<path class="st0" d="M62.5,30c4.3,3.2,8.4,7.9,8.2,10.5c-0.1,1.5-5.4,6.9-11.2,9c1.4,5.3,1.5,11.6-0.2,13.5
		c-0.9,1-7.7,1.7-13.4-0.2c0.4-1.4,0.6-2.8,0.6-4.3c0.2-7,8.9-11.6,8.9-23.9c0-11.6-11-20-20.1-20s-20.1,8.4-20.1,20
		c0,12.3,8.7,16.9,8.9,23.9c0,1.6,0.3,3.2,0.8,4.8c-4.5,2-9.9,3-11.8,1.7c-1.2-0.8-3.1-8.3-1.9-14.6C6.2,49,0.8,46,0,43.5
		c-0.4-1.4,2.7-8.4,7.6-12.5c-3-4.5-5.3-10.4-4.3-12.7c0.6-1.4,7.3-4.6,13.6-4.6c0.4-5.4,2.4-11.4,4.6-12.6
		c1.3-0.7,8.5,1.3,13.2,5.6c3.7-3.9,8.9-7.2,11.3-6.6c1.4,0.3,5.7,6.7,6.7,13.1c5.2-0.5,11.3,0.5,12.8,2.5
		C66.4,16.7,65.7,24.4,62.5,30z"/>
	<path class="st1" d="M42.3,42.9c4.3,0.5,8.7-3.2,13.2-0.5c1.6,1,3,3.9,3.8,7.1c-1.9,0.8-4,1-6.1,0.7C49.5,49.6,45.2,46.1,42.3,42.9
		z M25.1,38.2c-2.5,3.7-1.7,9.4-6.2,12.1c-1.6,1-4.7,0.8-7.9-0.1c0.3-2.1,1.2-4.2,2.5-5.9C15.9,41.4,21,39.3,25.1,38.2z M25.7,31
		c-4.2,1.1-7.2,6.1-12.2,5.2c-1.9-0.3-4.1-2.5-5.9-5.4c1.6-1.4,3.5-2.4,5.5-2.8C16.7,27.3,21.9,29,25.7,31z M30.6,25.8
		c-3.9-1.9-9.2-0.1-12.5-4.2c-1.2-1.5-1.5-4.7-1.3-8c2.1-0.1,4.2,0.5,6,1.5C26,16.9,28.9,21.8,30.6,25.8z M37.6,25.1
		c-1.8-4.2-7-6.3-7-11.6c0-1.9,1.7-4.6,4-7c1.7,1.4,2.9,3.2,3.7,5.2C39.6,15.3,38.8,20.9,37.6,25.1L37.6,25.1z M45.2,36.2
		c3.6-2.5,4.7-8.2,9.8-9.1c1.9-0.3,4.7,0.9,7.3,2.9c-1,1.9-2.5,3.5-4.2,4.7C54.9,36.6,49.4,36.8,45.2,36.2z M52.6,13
		c0.4,2.1,0.2,4.3-0.4,6.4c-1.2,3.7-5.3,7.4-8.9,9.9c1.2-4.4-1.5-9.4,1.8-13.5C46.4,14.2,49.3,13.3,52.6,13z"/>
	<path class="st2" d="M27.7,66.1c-0.9-0.3-1.6-0.8-2.1-1.6c-1-1.8-1.5-3.9-1.5-6c-0.2-7-8.9-11.6-8.9-23.9c0-11.6,11-20,20.1-20
		s20.1,8.4,20.1,20c0,12.3-8.7,16.9-8.9,23.9c0.1,2.2-0.5,4.3-1.6,6.2c-0.5,0.7-1.1,1.2-1.9,1.5h-0.2L27.7,66.1L27.7,66.1z"/>
	<path class="st3" d="M39.2,37.6c0.3-0.4,2.5,0.1,4.5-0.5c0.6-0.2,1.1-0.5,1.6-0.8c-3.2-0.4-5.6-1.2-5.7-1.9c0-0.5,2-1.5,3.1-3.5
		c0.3-0.6,0.5-1.1,0.7-1.7c-2.7,1.8-5,2.8-5.5,2.3s0.6-2.5,0.3-4.7c-0.1-0.6-0.3-1.2-0.5-1.7c-0.9,3.1-2.1,5.5-2.8,5.5
		c-0.5,0-1.1-2.3-2.7-3.8c-0.5-0.4-1-0.7-1.5-1c1.3,3,1.8,5.6,1.2,6.1c-0.4,0.3-2.3-1-4.4-1.1c-0.6,0-1.2,0.1-1.8,0.2
		c2.8,1.5,4.8,3,4.7,3.9c-0.1,0.5-2.4,0.7-4,2.1c-0.5,0.4-0.9,0.8-1.2,1.3c3.1-0.7,5.6-0.9,6-0.2c0.2,0.5-1.4,2.1-1.8,4.3
		c-0.1,0.6-0.1,1.2-0.1,1.8c1.9-2.6,3.8-4.4,4.4-4.2s0.3,2.5,1.3,4.5c0.3,0.5,0.7,1.1,1.1,1.5c-0.2-3.2,0.2-5.9,0.8-6.1
		s1.8,1.7,3.8,2.5c0.5,0.2,1.1,0.4,1.7,0.4C40.2,40.5,38.8,38.2,39.2,37.6z"/>
	<path class="st4" d="M43.9,62c-0.6-0.3-1.1-0.6-1.6-0.9c-0.9-0.6-1.8-1.4-2.5-2.2C37.4,56,36.3,50.4,36,46c3,3.2,8.6,3.3,10.4,8.4
		c0.1,0.2,0.1,0.3,0.1,0.5l0.3,1.1c-0.2,0.8-0.4,1.6-0.4,2.5c-0.1,1.5-0.3,2.9-0.6,4.4C45.2,62.6,44.6,62.3,43.9,62z M29.2,44.2
		c0.3,4.5,4.5,8.3,2.8,13.4c-0.5,1.4-2,2.8-4,4.1c-0.7,0.5-1.4,0.8-2.1,1.1c-0.3,0.1-0.7,0.3-1,0.5c-0.5-1.5-0.7-3.2-0.8-4.8v-1.9
		c0-0.4,0-0.9,0.1-1.3C24.7,51.7,26.9,47.3,29.2,44.2z M50.6,22.4c-2,2.7-4.5,5.1-7.3,6.9c1.1-3.9-0.9-8.3,0.9-12.1
		C46.7,18.5,48.9,20.2,50.6,22.4z M45.2,36.2c3.3-2.3,4.5-7.3,8.6-8.8c1,2.3,1.5,4.7,1.5,7.2v1.2C52,36.6,48.6,36.7,45.2,36.2z
		 M37.6,25.2c-1.6-3.7-5.8-5.7-6.8-9.8c1.5-0.4,3-0.6,4.5-0.6c1.2,0,2.5,0.1,3.7,0.4C39.1,18.5,38.6,21.9,37.6,25.2z M30.6,25.8
		c-3.4-1.7-7.9-0.5-11.2-2.9c1.7-2.2,3.8-4,6.2-5.4C27.7,20,29.4,22.8,30.6,25.8L30.6,25.8z M25.7,31.1c-3.7,1-6.4,4.9-10.4,5.3
		c0-0.5-0.1-1.1-0.1-1.6c0-2.3,0.5-4.6,1.3-6.7C19.8,28.5,22.9,29.5,25.7,31.1L25.7,31.1z M25.1,38.3c-2.3,3.2-1.8,8.3-5,11.2
		c-1.6-2.3-2.8-4.9-3.8-7.5C19.1,40.3,22,39,25.1,38.3L25.1,38.3z M42.3,42.9c3.9,0.4,7.9-2.5,11.9-1.1c-0.9,2.7-2.2,5.2-3.8,7.5
		C47.4,47.7,44.7,45.5,42.3,42.9z"/>
	<path class="st5" d="M42.7,73.1v1c0.8,0.1,1.3,0.7,1.3,1.5c0.1,0.7-0.5,1.3-1.2,1.4h-0.1l-4.9,1.3c0.3,0.3,0.5,0.8,0.5,1.2
		c0,0.8-0.5,1.4-1.3,1.5h-3.6c-0.8-0.1-1.4-0.9-1.3-1.8c0.1-0.4,0.3-0.8,0.7-1L27.7,77c-0.8-0.2-1.3-1-1.2-1.8
		c0.1-0.6,0.6-1,1.2-1.2h12.1v-0.3L27.7,73c-0.8-0.2-1.3-1-1.2-1.8c0.1-0.6,0.6-1,1.2-1.2h12v-0.3l-12-0.7c-0.8-0.2-1.3-1-1.2-1.8
		c0.1-0.6,0.6-1,1.2-1.2h15c0.8,0.2,1.3,1,1.2,1.8c-0.1,0.6-0.6,1-1.2,1.2h-0.1v1h0.1c0.8,0.1,1.3,0.7,1.3,1.5
		C44,72.4,43.5,73.1,42.7,73.1z"/>
</g>
</svg>
