<svg xmlns="http://www.w3.org/2000/svg" viewBox="0 0 62 46">
    <g fill-rule="evenodd">
        <g fill-rule="nonzero" stroke="#333">
            <path d="M26.34 1.485c5.036-1.104 10.483-.46 15.368 2.194h0l.52.292 1.104.73c6.588 4.348 11.222 11.634 14.323 20.682 1.096 3.196 1.924 6.411 2.524 9.505h0l.21 1.125.173 1.022.14.912.108.797.079.678.302 2.967-12.06-7.002c-3.374 4.764-8.19 7.869-13.416 9.066-5.081 1.164-10.55.525-15.454-2.14h0l-.52-.292-1.105-.729c-3.277-2.163-6.1-5.096-8.509-8.67-3.553-5.269-6.03-11.608-7.65-18.349-.475-1.98-.84-3.849-1.106-5.549h0l-.126-.848L1.1 6.755.793 3.612l12.042 6.992c3.519-4.956 8.29-7.976 13.505-9.12z"/>
        </g>
    </g>
</svg>
