<svg id="Thermometer" xmlns="http://www.w3.org/2000/svg" viewBox="0 0 25 43"><defs><style>.cls-1{fill:#ebebeb;}.cls-2{fill:#e2f7ff;}.cls-2,.cls-4{fill-rule:evenodd;}.cls-3{fill:#797979;}.cls-4{fill:red;}</style></defs><path id="Highlight" class="cls-1" d="M12.24484.00376A8.50011,8.50011,0,0,0,4,8.5V21.333l-.22.20983A12.50081,12.50081,0,0,0,12.127,42.99451l.43192.00506.25516-.00376A12.51261,12.51261,0,0,0,25,30.5l-.00466-.3433a12.48011,12.48011,0,0,0-3.77439-8.61292L21,21.334V8.49973A8.49994,8.49994,0,0,0,12.5,0Z"/><g id="Shape"><path class="cls-2" d="M12.5,4.5a4,4,0,0,1,4,4h0l.001,15.07071A8.00092,8.00092,0,0,1,12.754,38.496a8.70862,8.70862,0,0,1-5.888-2.38218A7.76445,7.76445,0,0,1,4.5,30.5a7.99732,7.99732,0,0,1,4-6.92985h0L8.5,8.5a4,4,0,0,1,4-4Z"/><path class="cls-3" d="M12.76953,38.99609a9.25961,9.25961,0,0,1-6.25146-2.52343A8.25211,8.25211,0,0,1,4,30.5a8.53139,8.53139,0,0,1,4-7.21191V8.5a4.5,4.5,0,0,1,9,0l.001,14.78809a8.501,8.501,0,0,1-4.23145,15.708ZM12.5,5A3.49923,3.49923,0,0,0,9,8.5V23.8584l-.24951.14453A7.52771,7.52771,0,0,0,5,30.5a7.26427,7.26427,0,0,0,2.21436,5.25586,8.242,8.242,0,0,0,5.55371,2.24023A7.50138,7.50138,0,0,0,20,30.5a7.53079,7.53079,0,0,0-3.749-6.49707l-.25-.14453L16,8.5A3.50006,3.50006,0,0,0,12.5,5Z"/></g><path id="Mercury" class="cls-4" d="M14,17l.00018,8.20708a5.5,5.5,0,1,1-2.99935-.00028L11,17Z"/></svg>
