<?xml version="1.0" encoding="UTF-8"?>
<svg width="21px" height="16px" viewBox="0 0 21 16" version="1.1" xmlns="http://www.w3.org/2000/svg" xmlns:xlink="http://www.w3.org/1999/xlink">
    <title>TS</title>
    <g id="Page-1" stroke="none" stroke-width="1" fill="none" fill-rule="evenodd">
        <g id="Icons-and-Artwork-v2" transform="translate(-166.000000, -492.000000)">
            <g id="TS" transform="translate(166.000000, 492.000000)">
                <rect id="Rectangle" x="0" y="0" width="21" height="16"></rect>
                <path d="M14.9878125,0.15 C16.007046,0.15 16.9551529,0.374134053 17.8026995,0.830194823 C18.6883992,1.30678563 19.3894418,1.99914659 19.8702278,2.87562368 C20.2798606,3.62238795 20.504781,4.44838695 20.5497061,5.33172727 L20.558125,5.665625 L20.558125,7.665625 L19.698625,7.66525 L19.7871834,7.8011597 C20.1998804,8.47655006 20.4439115,9.2426323 20.5223792,10.0762127 L20.5440498,10.391924 L20.5503125,10.68125 C20.5503125,12.2196796 20.0108,13.5439376 18.9298806,14.4997919 C17.9058343,15.4053535 16.5770849,15.8375 15.0346875,15.8375 C13.9962804,15.8375 13.0206075,15.6173092 12.1324478,15.1732294 C11.1932932,14.7036521 10.4369338,14.0118853 9.89882969,13.1246298 C9.6310506,12.6831009 9.43146186,12.2084347 9.29841082,11.7054318 L9.3003125,15.68125 L2.995625,15.68125 L2.995625,6.22025 L0.23,6.2203125 L0.23,0.30625 L12.1128125,0.30625 L12.112357,0.814615116 C12.9622608,0.370091156 13.9310278,0.15 14.9878125,0.15 Z M9.45064223,6.22086942 L9.299625,6.22025 L9.299625,8.09525 L10.167625,8.09525 L10.1434778,8.05731309 C9.84213526,7.57565801 9.62850872,7.05365245 9.50492169,6.50018425 L9.45064223,6.22086942 Z" fill="#FFFFFF" fill-rule="nonzero"></path>
                <path d="M11.0971875,10.0953125 L11.103505,10.3467593 C11.1371984,11.0072531 11.3056655,11.5875 11.6089062,12.0875 C11.9500521,12.65 12.4227083,13.0822917 13.026875,13.384375 C13.5555208,13.6486979 14.134012,13.7973796 14.7623486,13.8304199 L15.0346875,13.8375 L15.3008008,13.8316949 C16.2592426,13.789124 17.027309,13.5124132 17.605,13.0015625 C18.2352083,12.4442708 18.5503125,11.6708333 18.5503125,10.68125 C18.5503125,9.78020833 18.2990104,9.03802083 17.7964062,8.4546875 C17.2938021,7.87135417 16.4878125,7.37916667 15.3784375,6.978125 C14.7430208,6.70729167 14.3003125,6.44557292 14.0503125,6.19296875 C13.8003125,5.94036458 13.6753125,5.6578125 13.6753125,5.3453125 C13.6753125,4.94427083 13.7872917,4.62526042 14.01125,4.38828125 C14.2352083,4.15130208 14.5477083,4.0328125 14.94875,4.0328125 C15.3758333,4.0328125 15.7026562,4.17213542 15.9292187,4.45078125 C16.0991406,4.65976562 16.2053418,4.93979492 16.2478223,5.29086914 L16.2637524,5.47232666 L16.2690625,5.665625 L18.558125,5.665625 L18.551228,5.41318359 C18.5190422,4.83212891 18.3742057,4.30690104 18.1167187,3.8375 C17.8224479,3.30104167 17.401875,2.88567708 16.855,2.59140625 C16.308125,2.29713542 15.6857292,2.15 14.9878125,2.15 C13.9409375,2.15 13.0776562,2.44036458 12.3979687,3.02109375 C11.7182812,3.60182292 11.3784375,4.37135417 11.3784375,5.3296875 C11.3784375,5.5671875 11.4009375,5.79519531 11.4459375,6.01371094 L11.4962153,6.22116277 C11.6158363,6.6486434 11.826577,7.0376829 12.1284375,7.38828125 C12.6284375,7.96901042 13.44875,8.47552083 14.589375,8.9078125 C15.214375,9.16302083 15.6453646,9.40911458 15.8823437,9.64609375 C16.1193229,9.88307292 16.2378125,10.2333333 16.2378125,10.696875 C16.2378125,11.5458333 15.8367708,11.9703125 15.0346875,11.9703125 C14.4565625,11.9703125 14.0398958,11.821875 13.7846875,11.525 C13.5861921,11.2940972 13.4648894,10.9544946 13.4207793,10.5061921 L13.4066011,10.3074074 L13.401875,10.0953125 L11.0971875,10.0953125 Z" id="Path" fill="#434343" fill-rule="nonzero"></path>
                <polygon id="Path" fill="#434343" fill-rule="nonzero" points="10.1128125 4.2203125 10.1128125 2.30625 2.23 2.30625 2.23 4.2203125 4.995625 4.2203125 4.995625 13.68125 7.3003125 13.68125 7.3003125 4.2203125"></polygon>
            </g>
        </g>
    </g>
</svg>