<svg id="View_ICON" data-name="View ICON" xmlns="http://www.w3.org/2000/svg" viewBox="0 0 26 26"><title>View Icon</title><path id="outline" d="M13,0A13,13,0,1,0,26,13,13,13,0,0,0,13,0Z"/><path id="back" d="M13,2A11,11,0,1,1,2,13,11,11,0,0,1,13,2" style="fill:#fff"/><g id="eye"><path d="M13,9.4a3.57,3.57,0,0,0-2.3.84,1.45,1.45,0,0,1,.8-.24A1.5,1.5,0,1,1,10,11.5a1.45,1.45,0,0,1,.24-.8A3.59,3.59,0,1,0,13,9.4Z"/><path d="M13,7c-5.4,0-9,5.33-9,6s3.6,6,9,6,9-5.33,9-6S18.4,7,13,7Zm0,10.8A4.8,4.8,0,1,1,17.8,13,4.8,4.8,0,0,1,13,17.8Z"/></g></svg>